# xmcd
#
# Track frame offsets: 
#        150
#        17244
#        34591
#        54810
#        77798
#        99351
#        114896
#        134054
#        152205
#        168292
#        185874
#        210441
#
# Disc length: 3148 seconds
#
# Revision: 0
# Processed by: cddbd v1.5.2PL0 Copyright (c) Steve Scherf et al.
# Submitted via: ExactAudioCopy v0.99pb5
#
DISCID=960c4a0c
DTITLE=Texas Renegade - Bad Dreams and Other Things
DYEAR=2009
DGENRE=Texas Country
TTITLE0=Won't Feel Better
TTITLE1=Pay the Devil
TTITLE2=Good at Goodbye
TTITLE3=Sake of the Song
TTITLE4=Coming Home
TTITLE5=Happy Anniversary
TTITLE6=Lipstick
TTITLE7=Comanche Moon
TTITLE8=(Must Have Been) Crazy
TTITLE9=St. Christopher
TTITLE10=Still In Love
TTITLE11=Need You
EXTD=
EXTT0=
EXTT1=
EXTT2=
EXTT3=
EXTT4=
EXTT5=
EXTT6=
EXTT7=
EXTT8=
EXTT9=
EXTT10=
EXTT11=
PLAYORDER=
